<svg width="100" height="102" viewBox="0 0 100 102" fill="none" xmlns="http://www.w3.org/2000/svg">
<path d="M49.2996 90.2276C38.8015 90.2276 28.7333 85.9993 21.31 78.4729C13.8867 70.9465 9.71631 60.7385 9.71631 50.0945C9.71631 39.4506 13.8867 29.2426 21.31 21.7161C28.7333 14.1897 38.8015 9.96143 49.2996 9.96143C49.8522 9.96143 50.3821 10.184 50.7728 10.5801C51.1635 10.9762 51.383 11.5135 51.383 12.0737C51.383 12.6339 51.1635 13.1712 50.7728 13.5673C50.3821 13.9634 49.8522 14.186 49.2996 14.186C43.4566 14.1508 37.6957 15.582 32.5305 18.352C27.3653 21.1219 22.9563 25.1446 19.6965 30.0613C16.4368 34.9781 14.4274 40.6362 13.8477 46.5313C13.268 52.4264 14.1359 58.3754 16.374 63.8479C18.6121 69.3204 22.1509 74.1465 26.675 77.8959C31.199 81.6454 36.5678 84.2017 42.3027 85.337C48.0376 86.4723 53.9604 86.1513 59.5433 84.4026C65.1261 82.654 70.1956 79.532 74.2996 75.315C74.4849 75.0927 74.7135 74.9115 74.971 74.783C75.2286 74.6544 75.5095 74.5812 75.7963 74.568C76.0831 74.5547 76.3695 74.6017 76.6375 74.706C76.9055 74.8103 77.1494 74.9696 77.3538 75.1739C77.5582 75.3783 77.7188 75.6232 77.8254 75.8935C77.9321 76.1637 77.9825 76.4534 77.9735 76.7443C77.9645 77.0352 77.8963 77.3211 77.7731 77.584C77.65 77.8469 77.4746 78.0812 77.258 78.2722C73.6149 82.0483 69.2661 85.0505 64.4657 87.1032C59.6653 89.156 54.5095 90.2181 49.2996 90.2276Z" fill="#FF4343"/>
<path d="M48.0498 63.6131C47.7797 63.6219 47.5106 63.5739 47.2596 63.4721C47.0086 63.3703 46.7812 63.2169 46.5915 63.0216L29.9248 46.1235C29.7296 45.9271 29.5746 45.6935 29.4688 45.4361C29.363 45.1787 29.3086 44.9026 29.3086 44.6238C29.3086 44.3449 29.363 44.0688 29.4688 43.8114C29.5746 43.554 29.7296 43.3204 29.9248 43.1241C30.3213 42.7343 30.8518 42.5164 31.404 42.5164C31.9562 42.5164 32.4867 42.7343 32.8832 43.1241L48.0498 58.5436L82.0082 24.1136C82.4005 23.7159 82.9325 23.4924 83.4873 23.4924C84.0421 23.4924 84.5742 23.7159 84.9665 24.1136C85.3588 24.5114 85.5792 25.0508 85.5792 25.6133C85.5792 26.1758 85.3588 26.7153 84.9665 27.1131L49.5498 63.0216C49.351 63.2161 49.116 63.3686 48.8584 63.4701C48.6009 63.5717 48.3261 63.6203 48.0498 63.6131Z" fill="#FF4343"/>
</svg>
